{"title":"Albino Farm 2009 DVDrip English Klam","uid":6478110,"size":1283975005,"categoryP":"video","categoryS":"movies","magnet":"?xt=urn:btih:5f1ef023e7871fb82568278bacc4e6a4af51df9b&amp;dn=Albino+Farm+2009+DVDrip+English+Klam&amp;tr=udp%3A%2F%2Ftracker.openbittorrent.com%3A80&amp;tr=udp%3A%2F%2Fopen.demonii.com%3A1337&amp;tr=udp%3A%2F%2Ftracker.coppersurfer.tk%3A6969&amp;tr=udp%3A%2F%2Fexodus.desync.com%3A6969","seeders":0,"leechers":1,"uploader":"Klambake","files":-1,"time":1308395289,"description":"With: Tammin Sursok, Chris Jericho and Richard Christy\n\nVier universitaire studenten gaan naar het Ozark gebergte op onderzoek uit. Dit moeten ze doen als opdracht voor hun studie. Ze komen in een benarde situatie terecht als ze geconfronteerd worden met een gemeenschap van gemuteerde rednecks.\n\nCollege students exploring the Ozark Mountains for a school assignment, stumble upon a group of scary, redneck cave-dwellers. \n\n------------------ Dutch Friends ------------------\n\nYou can find my Friends at: http://www.Film-Test.nl \n                    \n------ They got my dutchs subs ---- and more ------\n\nGeneral:\n\nComplete name                    : Albino Farm\\Albino Farm.avi\nFormat                           : AVI\nFormat/Info                      : Audio Video Interleave\nFile size                        : 1.20 GiB\nDuration                         : 1h 25mn\nOverall bit rate                 : 2 009 Kbps\n\nVideo:\n\nFormat                           : MPEG-4 Visual\nFormat profile                   : Simple@L3\nFormat settings, BVOP            : No\nFormat settings, QPel            : No\nFormat settings, GMC             : No warppoints\nFormat settings, Matrix          : Default (H.263)\nCodec ID                         : XVID\nCodec ID/Hint                    : XviD\nDuration                         : 1h 25mn\nBit rate                         : 1 550 Kbps\nWidth                            : 704 pixels\nHeight                           : 398 pixels\nDisplay aspect ratio             : 16:9\nFrame rate                       : 25.000 fps\nColor space                      : YUV\nChroma subsampling               : 4:2:0\nBit depth                        : 8 bits\nScan type                        : Progressive\nBits/(Pixel*Frame)               : 0.221\nStream size                      : 945 MiB (77%)\nWriting library                  : XviD 1.1.2 (UTC 2006-11-01)\n\nAudio:\n\nFormat                           : AC-3\nFormat/Info                      : Audio Coding 3\nMode extension                   : CM (complete main)\nCodec ID                         : 2000\nDuration                         : 1h 25mn\nBit rate mode                    : Constant\nBit rate                         : 448 Kbps\nChannel(s)                       : 6 channels\nChannel positions                : Front: L C R, Side: L R, LFE\nSampling rate                    : 48.0 KHz\nBit depth                        : 16 bits\nStream size                      : 273 MiB (22%)\nAlignment                        : Aligned on interleaves\nInterleave, duration             : 32 ms (0.80 video frame)\nInterleave, preload duration     : 608 ms\n\n","torrent":{"xt":"urn:btih:5f1ef023e7871fb82568278bacc4e6a4af51df9b","amp;dn":"Albino+Farm+2009+DVDrip+English+Klam","amp;tr":["udp%3A%2F%2Ftracker.openbittorrent.com%3A80","udp%3A%2F%2Fopen.demonii.com%3A1337","udp%3A%2F%2Ftracker.coppersurfer.tk%3A6969","udp%3A%2F%2Fexodus.desync.com%3A6969"],"infoHash":"5f1ef023e7871fb82568278bacc4e6a4af51df9b","infoHashBuffer":{"type":"Buffer","data":[95,30,240,35,231,135,31,184,37,104,39,139,172,196,230,164,175,81,223,155]},"announce":[],"urlList":[]}}